<?xml version="1.0" encoding="UTF-8"?>
<svg height="128px" viewBox="0 0 128 128" width="128px" xmlns="http://www.w3.org/2000/svg" xmlns:xlink="http://www.w3.org/1999/xlink">
    <linearGradient id="a" gradientTransform="matrix(0.14387 0 0 0.157589 -83.810173 -18.640076)" gradientUnits="userSpaceOnUse" x1="1275.329956" x2="1304.290039" y1="576.093018" y2="613">
        <stop offset="0" stop-color="#315374"/>
        <stop offset="1" stop-color="#567ea9"/>
    </linearGradient>
    <linearGradient id="b" gradientTransform="matrix(0.14387 0 0 0.157589 -83.810173 -18.640076)" gradientUnits="userSpaceOnUse" x1="1068.959961" x2="1152.51001" y1="478.649994" y2="379.355988">
        <stop offset="0" stop-color="#546e85"/>
        <stop offset="1" stop-color="#728aa0"/>
    </linearGradient>
    <linearGradient id="c" gradientTransform="matrix(0.14387 0 0 0.157589 -83.810173 -18.640076)" gradientUnits="userSpaceOnUse" x1="1309.73999" x2="1287.339966" y1="427.352997" y2="474.208008">
        <stop offset="0" stop-color="#46403e"/>
        <stop offset="1" stop-color="#605d56"/>
    </linearGradient>
    <linearGradient id="d" gradientTransform="matrix(0.14387 0 0 0.157589 -83.810173 -18.640076)" gradientUnits="userSpaceOnUse" x1="1326.959961" x2="1342.780029" y1="498.567993" y2="456.058014">
        <stop offset="0" stop-color="#4c4b42"/>
        <stop offset="1" stop-color="#6a6966"/>
    </linearGradient>
    <linearGradient id="e" gradientTransform="matrix(0.14387 0 0 0.157589 -83.810173 -18.640076)" gradientUnits="userSpaceOnUse" x1="1266.900024" x2="1348.699951" y1="376.848999" y2="322.091003">
        <stop offset="0" stop-color="#8e8c8f"/>
        <stop offset="1" stop-color="#a8aaa9"/>
    </linearGradient>
    <path d="m 41.894531 39.4375 c 0.558594 -0.339844 2.195313 -2.488281 2.714844 -3.144531 c 6.027344 -7.613281 14.902344 -10.972657 23.207031 -14.546875 c 4.03125 -1.734375 8.003906 -6.003906 12.242188 -2.230469 c 2.390625 2.125 4.617187 4.390625 6.96875 6.566406 l 14.296875 13.472657 c 2.828125 2.636718 14.558593 13.265624 16.320312 16.328124 c 0.125 0.21875 0.246094 0.441407 0.359375 0.671876 c 2.707032 3.390624 3.085938 1.796874 3.230469 6.796874 c -0.035156 1.226563 -0.390625 2.472657 -1.292969 3.210938 c -2.324218 1.90625 -5.515625 3.78125 -8.027344 5.394531 l -9.757812 6.246094 c -1.757812 1.117187 -3.523438 2.246094 -5.277344 3.371094 c -1.226562 0.789062 -3.132812 1.769531 -4.257812 2.601562 c -2.003906 1.488281 -3.382813 4.121094 -5.605469 5.546875 c -2.058594 1.324219 -4.632813 0.925782 -6.589844 2.003906 c -1.15625 0.640626 -2.617187 1.71875 -3.808593 2.4375 c -5.34375 3.234376 -10.613282 6.605469 -15.808594 10.121094 c -2.171875 1.453125 -11.050782 7.457032 -13.039063 7.730469 c -2.011719 0.691406 -5.105469 -0.398437 -6.640625 -1.960937 c -2.351562 -2.398438 -4.535156 -4.957032 -6.792968 -7.445313 l -11.921876 -13.085937 c -5.984374 -6.523438 -12.148437 -12.902344 -18.253906 -19.289063 c -1.953125 -2.039063 -2.191406 -2.378906 -2.234375 -5.265625 c 0.011719 -2.65625 0.378907 -3.433594 2.355469 -5.050781 c 0.378906 -0.308594 0.894531 -0.648438 1.203125 -1.019531 l 0.105469 -1.347657 c 0.230468 -0.574219 0.722656 -1.757812 1.167968 -2.152343 c 1.789063 -1.585938 4.609376 -2.777344 6.5 -4.160157 c 3 -2.203125 6.3125 -4.074219 9.304688 -6.050781 c 7.101562 -4.691406 11.105469 -5.765625 19.332031 -5.75 z m 0 0" fill="#f4f3e2"/>
    <path d="m 117.917969 56.832031 l 0.085937 -0.277343 c 2.707032 3.390624 3.085938 1.796874 3.230469 6.796874 c -0.035156 1.226563 -0.390625 2.472657 -1.292969 3.210938 c -2.324218 1.90625 -5.515625 3.78125 -8.027344 5.394531 l -9.757812 6.246094 c -1.757812 1.117187 -3.523438 2.246094 -5.277344 3.371094 c -1.226562 0.789062 -3.132812 1.769531 -4.257812 2.601562 c -2.003906 1.488281 -3.382813 4.121094 -5.605469 5.546875 c -2.058594 1.324219 -4.632813 0.925782 -6.589844 2.003906 c -1.15625 0.640626 -2.617187 1.71875 -3.808593 2.4375 c -5.34375 3.234376 -10.613282 6.605469 -15.808594 10.121094 c -2.171875 1.453125 -11.050782 7.457032 -13.039063 7.730469 c -2.011719 0.691406 -5.105469 -0.398437 -6.640625 -1.960937 c -2.351562 -2.398438 -4.535156 -4.957032 -6.792968 -7.445313 l -11.921876 -13.085937 c -5.984374 -6.523438 -12.148437 -12.902344 -18.253906 -19.289063 c -1.953125 -2.039063 -2.191406 -2.378906 -2.234375 -5.265625 c 0.011719 -2.65625 0.378907 -3.433594 2.355469 -5.050781 c 0.378906 -0.308594 0.894531 -0.648438 1.203125 -1.019531 l 0.105469 -1.347657 c 0.027344 0.230469 0.0625 0.503907 0.101562 0.832031 c 1.429688 1.488282 3.226563 3.359376 4.605469 4.8125 l 11.996094 12.78125 c 1.382812 1.472657 2.667969 3.007813 4.046875 4.507813 c 2.582031 2.765625 5.339844 5.3125 7.832031 8.179687 c 3.21875 3.707032 6.671875 7.503907 10.203125 10.84375 c 3.179688 3.011719 5.726562 -0.226562 8.445312 -1.652343 c 9.015626 -4.730469 20.386719 -18.050781 31.148438 -14.503907 l 0.550781 -0.253906 l 0.292969 -0.1875 c 1.203125 -3.015625 2.058594 -3.527344 3.921875 -5.9375 c 3.699219 -4.878906 8.503906 -7.628906 13.472656 -10.5625 c 4.394531 -2.59375 12.660157 -5.402344 15.710938 -9.578125 z m 0 0" fill="#3b5b7d"/>
    <path d="m 5.484375 58.898438 l 0.105469 -1.347657 c 0.027344 0.230469 0.0625 0.503907 0.101562 0.832031 c 1.429688 1.488282 3.226563 3.359376 4.605469 4.8125 l 11.996094 12.78125 c 1.382812 1.472657 2.667969 3.007813 4.046875 4.507813 c 2.582031 2.765625 5.339844 5.3125 7.832031 8.179687 c 3.21875 3.707032 6.671875 7.503907 10.203125 10.84375 c 3.179688 3.011719 5.726562 -0.226562 8.445312 -1.652343 c 9.015626 -4.730469 20.386719 -18.050781 31.148438 -14.503907 c -2.605469 1.289063 -3.707031 2.261719 -6.058594 3.820313 c -1.003906 0.257813 -8.542968 5.4375 -9.867187 6.300781 c -2.574219 1.582032 -5.101563 2.992188 -7.65625 4.640625 c -4 2.566407 -7.902344 5.449219 -12.109375 7.585938 c -1.59375 0.808593 -3.242188 0.632812 -4.558594 -0.699219 c -1.578125 -1.589844 -3.097656 -3.28125 -4.621094 -4.929688 l -9.914062 -10.71875 l -14.75 -15.847656 c -2.042969 -2.175781 -7.4375 -7.652344 -8.882813 -9.875 c -0.074219 -1.566406 0.0625 -3.144531 -0.066406 -4.730468 z m 0 0" fill="#c7c0a8"/>
    <path d="m 117.917969 56.832031 l 0.085937 -0.277343 c 2.707032 3.390624 3.085938 1.796874 3.230469 6.796874 c -1.402344 1.792969 -10.863281 7.457032 -13.210937 8.847657 c -2.773438 1.644531 -5.6875 3.832031 -8.457032 5.585937 c -2.316406 1.46875 -4.777344 3.023438 -7.117187 4.425782 c -1.964844 1.179687 -2.578125 3.601562 -4.914063 5.082031 c -1.613281 1.023437 -3.421875 1.625 -5.285156 1.757812 c -0.101562 0.007813 -0.207031 0.015625 -0.308594 0.019531 l -0.03125 -0.261718 c -1.410156 -1.40625 -1.539062 -0.394532 -3.054687 -0.828125 c 0.113281 -0.21875 1.109375 0.070312 1.742187 -0.253907 c -0.007812 -0.484374 -0.222656 -0.613281 -0.542968 -1.074218 l -0.257813 0.011718 l -0.117187 -0.164062 c -0.476563 0.238281 -1.289063 0.726562 -1.769532 0.671875 c 2.351563 -1.558594 3.453125 -2.53125 6.058594 -3.820313 l 0.550781 -0.253906 l 0.292969 -0.1875 c 1.203125 -3.015625 2.058594 -3.527344 3.921875 -5.9375 c 3.699219 -4.878906 8.503906 -7.628906 13.472656 -10.5625 c 4.394531 -2.59375 12.660157 -5.402344 15.710938 -9.578125 z m 0 0" fill="url(#a)"/>
    <path d="m 84.8125 82.910156 c 1.203125 -3.015625 2.058594 -3.527344 3.921875 -5.9375 c 3.699219 -4.878906 8.503906 -7.628906 13.472656 -10.5625 c 4.394531 -2.59375 12.660157 -5.402344 15.710938 -9.578125 c 0.097656 6.851563 -0.285157 4.253907 -4.472657 7.988281 c -9.015624 5.351563 -17.910156 11.582032 -26.914062 17.007813 c -0.570312 0.339844 -1.148438 0.761719 -1.71875 1.082031 z m 0 0" fill="#c7c0a8"/>
    <path d="m 113.445312 64.820312 c 0.847657 -0.15625 2.734376 -1.757812 3.070313 -1.683593 c -0.277344 0.695312 -0.488281 0.519531 -1.011719 0.863281 c -0.566406 0.375 -1.214844 1.109375 -1.789062 1.4375 c -2.503906 1.410156 -4.773438 3.144531 -7.160156 4.757812 c -1.210938 0.816407 -2.738282 1.421876 -4.007813 2.199219 c -4.550781 2.777344 -8.800781 5.359375 -13.019531 8.703125 c -1.164063 3.683594 -4.878906 6.445313 -8.410156 6.507813 c -0.34375 -0.328125 -0.679688 -0.726563 -1.0625 -0.953125 l -0.257813 0.011718 l -0.117187 -0.164062 c -0.476563 0.238281 -1.289063 0.726562 -1.769532 0.671875 c 2.351563 -1.558594 3.453125 -2.53125 6.058594 -3.820313 l 0.550781 -0.253906 l 0.292969 -0.1875 c 0.570312 -0.320312 1.148438 -0.742187 1.71875 -1.082031 c 9.003906 -5.425781 17.898438 -11.65625 26.914062 -17.007813 z m 0 0" fill="#203e64"/>
    <path d="m 81.941406 89.070312 c 0.101563 -0.003906 0.207032 -0.011718 0.308594 -0.019531 c 1.863281 -0.132812 3.671875 -0.734375 5.285156 -1.757812 c 2.335938 -1.480469 2.949219 -3.902344 4.914063 -5.082031 c 2.339843 -1.402344 4.800781 -2.957032 7.117187 -4.425782 c 2.769532 -1.753906 5.683594 -3.941406 8.457032 -5.585937 c 2.347656 -1.390625 11.808593 -7.054688 13.210937 -8.847657 c -0.035156 1.226563 -0.390625 2.472657 -1.292969 3.210938 c -2.324218 1.90625 -5.515625 3.78125 -8.027344 5.394531 l -9.757812 6.246094 c -1.757812 1.117187 -3.523438 2.246094 -5.277344 3.371094 c -1.226562 0.789062 -3.132812 1.769531 -4.257812 2.601562 c -2.003906 1.488281 -3.382813 4.121094 -5.605469 5.546875 c -2.058594 1.324219 -4.632813 0.925782 -6.589844 2.003906 c -1.15625 0.640626 -2.617187 1.71875 -3.808593 2.4375 c -5.34375 3.234376 -10.613282 6.605469 -15.808594 10.121094 c -2.171875 1.453125 -11.050782 7.457032 -13.039063 7.730469 c -2.011719 0.691406 -5.105469 -0.398437 -6.640625 -1.960937 c -2.351562 -2.398438 -4.535156 -4.957032 -6.792968 -7.445313 l -11.921876 -13.085937 c -5.984374 -6.523438 -12.148437 -12.902344 -18.253906 -19.289063 c -1.953125 -2.039063 -2.191406 -2.378906 -2.234375 -5.265625 l 0.1875 0.085938 c 1.324219 2.480468 5.824219 6.472656 7.929688 8.695312 l 11.917969 12.808594 c 1.71875 1.84375 3.277343 3.847656 4.980468 5.703125 c 1.984375 2.160156 4.316406 4.234375 6.246094 6.433593 c 2.410156 2.746094 4.65625 5.503907 7.269531 8.046876 c 1.199219 1.167968 2.59375 2.300781 4.019531 3.105468 c 2.941407 1.296875 6.328126 -1.550781 8.886719 -2.984375 c 2.308594 -1.292969 4.535157 -2.867187 6.707031 -4.425781 c 0.4375 -0.203125 1.027344 -0.566406 1.445313 -0.832031 c 5.15625 -3.261719 10.296875 -6.566407 15.433594 -9.863281 c 1.4375 -0.921876 3.398437 -2.472657 4.992187 -2.671876 z m 0 0" fill="#203e64"/>
    <path d="m 2.113281 65.054688 l 0.226563 -0.367188 c 1.296875 0.152344 3.617187 3.875 4.648437 4.953125 l 26.933594 28.65625 c 2.894531 3.109375 6.753906 8.6875 10.898437 10.617187 c 2.273438 1.058594 7.96875 -3.023437 8.667969 -2.9375 c -0.660156 0.535157 -2.929687 1.597657 -3.234375 2.164063 c 0.964844 0.300781 9.21875 -5.761719 9.773438 -5.738281 l 0.042968 0.035156 c -2.171874 1.558594 -4.398437 3.132812 -6.707031 4.425781 c -2.558593 1.433594 -5.945312 4.28125 -8.886719 2.984375 c -1.425781 -0.804687 -2.820312 -1.9375 -4.019531 -3.105468 c -2.613281 -2.542969 -4.859375 -5.300782 -7.269531 -8.046876 c -1.929688 -2.199218 -4.261719 -4.273437 -6.246094 -6.433593 c -1.703125 -1.855469 -3.261718 -3.859375 -4.980468 -5.703125 l -11.917969 -12.808594 c -2.105469 -2.222656 -6.605469 -6.214844 -7.929688 -8.695312 z m 0 0" fill="#50779a"/>
    <path d="m 70.800781 30.382812 c 2.175781 2.660157 6.050781 5.277344 8.261719 7.863282 c -1.050781 0.546875 -2.101562 1.015625 -3.15625 1.574218 c -1.5625 0.824219 -3.101562 1.828126 -4.730469 2.460938 c 2.582031 2.859375 5.277344 5.269531 8.066407 7.863281 l 1.519531 -1.105469 c 0.214843 1.125 0.230469 2.882813 0.84375 3.75 c 0.496093 0.109376 6.648437 -3.6875 7.722656 -4.3125 c 1.296875 1.078126 2.347656 2.316407 3.53125 3.535157 c 1.628906 1.683593 3.285156 3.316406 4.855469 5.0625 c -0.625 0.363281 -1.371094 0.820312 -2.003906 1.109375 c -4.421876 2.007812 -8.246094 4.917968 -11.996094 8.136718 c -0.5625 0.484376 -1.609375 1.519532 -2.332032 1.546876 c -2.347656 -3.042969 -5.859374 -5.800782 -7.773437 -8.363282 c 0.832031 -0.773437 7.164063 -5.757812 7.222656 -5.96875 c -0.613281 -0.679687 -3.351562 -1.066406 -4.359375 -1.277344 c 0.441406 -0.402343 1.152344 -0.910156 1.636719 -1.285156 c -1.617187 -2.070312 -6.050781 -6.242187 -8.054687 -7.957031 c -2.222657 1.621094 -4.898438 3.871094 -7.109376 5.601563 c -2.746093 -2.128907 -4.703124 -4.457032 -7.109374 -6.996094 c -0.40625 -0.429688 -0.523438 -0.578125 -0.515626 -1.089844 c 1.34375 -2.996094 12.472657 -8.476562 15.480469 -10.148438 z m 0 0" fill="url(#b)"/>
    <path d="m 88.882812 50.042969 c 0.046876 -0.003907 0.089844 -0.011719 0.136719 -0.015625 c 0.671875 -0.035156 6.183594 6.019531 7.054688 6.980468 c -5.203125 1.921876 -9.695313 5.429688 -13.898438 9.179688 l -0.414062 0.230469 c -0.480469 -0.019531 -1.515625 -1.554688 -1.910157 -2.023438 c -1.480468 -1.746093 -3.128906 -3.292969 -4.75 -4.878906 c 0.957032 -0.714844 2.03125 -1.484375 2.949219 -2.25 c 3.421875 -2.859375 7.007813 -5.050781 10.832031 -7.222656 z m 0 0" fill="#f4f2e2"/>
    <path d="m 69.96875 31.757812 c 0.035156 0 0.070312 0 0.101562 0.003907 c 1.023438 0.066406 6.261719 5.273437 7.164063 6.316406 c -1.910156 1.046875 -3.96875 1.808594 -5.933594 3.019531 c -2.773437 1.710938 -5.34375 3.753906 -7.882812 5.851563 l -0.417969 0.203125 c -0.871094 -0.144532 -5.476562 -5.464844 -6.554688 -6.550782 c 5.460938 -4.917968 8.078126 -5.25 13.523438 -8.84375 z m 0 0" fill="#f4f2e2"/>
    <path d="m 26.976562 50.949219 c 0.515626 0.0625 2.273438 3.089843 2.65625 3.695312 l 2.46875 -1.449219 c 0.71875 1.003907 0.753907 1.039063 1.65625 1.828126 c -0.949218 0.636718 -1.820312 1.15625 -2.804687 1.730468 c 0.6875 0.964844 1.367187 1.933594 2.035156 2.90625 c 1.019531 -0.488281 1.664063 -0.863281 2.628907 -1.472656 c 0.414062 0.617188 1.078124 1.125 1.636718 1.601562 c -1.113281 0.640626 -1.796875 1.078126 -2.839844 1.84375 c 0.746094 1.441407 1.363282 2.503907 2.269532 3.816407 c -0.84375 0.730469 -1.351563 1.117187 -2.269532 1.730469 c -0.734374 -1.046876 -1.570312 -2.554688 -2.359374 -3.722657 c -1.277344 0.578125 -1.832032 0.917969 -2.878907 1.835938 c 0.84375 1.195312 1.738281 2.671875 2.457031 3.960937 c -0.816406 0.523438 -1.441406 0.960938 -2.21875 1.550782 c -0.820312 -0.84375 -1.980468 -2.898438 -2.507812 -3.988282 c -1.070312 0.441406 -1.734375 0.992188 -2.632812 1.722656 c -0.65625 -0.894531 -0.792969 -1.164062 -1.253907 -2.179687 c 0.628907 -0.367187 1.738281 -1.226563 2.371094 -1.691406 c -0.664063 -1.132813 -1.140625 -1.929688 -1.660156 -3.140625 c -0.824219 0.308594 -2.269531 1.285156 -3.054688 1.792968 l -1.355469 -1.886718 c 0.738282 -0.585938 2.066407 -1.511719 2.875 -1.941406 c -0.429687 -0.605469 -2.101562 -3.226563 -2.117187 -3.867188 c 0.941406 -0.539062 1.171875 -0.734375 1.976563 -1.484375 c 0.890624 1.050781 1.632812 2.457031 2.328124 3.6875 c 0.972657 -0.484375 1.941407 -0.980469 2.90625 -1.496094 c -0.570312 -1.121093 -1.660156 -2.804687 -2.335937 -3.972656 c 0.675781 -0.371094 1.386719 -0.941406 2.023437 -1.410156 z m 0 0" fill="#646560"/>
    <path d="m 28.554688 58.558594 c 0.660156 0.234375 1.625 1.914062 2.085937 2.601562 c -0.875 0.75 -1.773437 1.0625 -2.695313 1.832032 c -0.453124 -0.214844 -1.714843 -2.554688 -2.058593 -3.15625 c 0.898437 -0.40625 1.789062 -0.832032 2.667969 -1.277344 z m 0 0" fill="#f4f2e2"/>
    <g fill="#c7c0a8">
        <path d="m 58.363281 65.371094 c 0.828125 0.019531 1.152344 0.605468 1.777344 1.296875 c -3.695313 1.808593 -7.570313 3.933593 -11.140625 6.027343 c -1.242188 0.730469 -2.785156 1.964844 -4.027344 2.800782 l -8.796875 5.796875 l -0.28125 0.117187 c -0.414062 -0.226562 -1.035156 -1.039062 -1.378906 -1.445312 c 1.316406 -1.375 4.609375 -3.390625 6.210937 -4.488282 c 5.824219 -3.992187 11.21875 -7.351562 17.636719 -10.105468 z m 0 0"/>
        <path d="m 55.839844 78.117188 c 0.6875 -0.140626 1.421875 0.71875 1.976562 1.1875 c -3.023437 2.054687 -5.992187 3.914062 -9.054687 5.871093 c -1.773438 1.132813 -3.332031 2.460938 -5.199219 3.585938 c -0.183594 0.089843 -0.265625 0.09375 -0.464844 0.136719 c -0.511718 -0.359376 -0.921875 -1.148438 -1.273437 -1.722657 c 1.464843 -0.773437 2.855469 -1.957031 4.257812 -2.867187 c 3.140625 -2.039063 6.480469 -4.496094 9.757813 -6.191406 z m 0 0"/>
        <path d="m 62.085938 68.988281 c 0.511718 0.160157 1.300781 0.921875 1.753906 1.3125 c -5.472656 2.519531 -8.972656 4.773438 -14.078125 8.035157 l -0.414063 0.082031 c -0.464844 -0.265625 -0.988281 -1.039063 -1.34375 -1.503907 c 3.480469 -2.746093 10.054688 -6.355468 14.082032 -7.925781 z m 0 0"/>
        <path d="m 43.589844 67.847656 c 0.664062 0.203125 1.148437 0.804688 1.65625 1.328125 c -2.597656 1.792969 -5.3125 3.359375 -7.898438 5.167969 c -1.5625 1.09375 -3.109375 2.210938 -4.746094 3.164062 c -0.46875 -0.019531 -1.253906 -1.101562 -1.582031 -1.496093 c 4.445313 -3.21875 7.8125 -5.382813 12.570313 -8.164063 z m 0 0"/>
        <path d="m 55.507812 61.773438 c 0.386719 0.035156 1.078126 0.695312 1.167969 1.15625 c -0.257812 0.253906 -2.710937 1.398437 -3.179687 1.636718 c -2.011719 1.011719 -4 2.074219 -5.96875 3.1875 c -0.203125 0.007813 -0.335938 -0.039062 -0.539063 -0.082031 c -0.332031 -0.332031 -0.496093 -0.457031 -0.675781 -0.921875 c 0.214844 -2.097656 7.394531 -4.640625 9.195312 -4.976562 z m 0 0"/>
        <path d="m 45.683594 78.574219 c 0.566406 0.164062 1.132812 0.859375 1.582031 1.324219 c -2.332031 2.019531 -4.964844 3.507812 -7.570313 5.046874 c -0.589843 0 -1.210937 -0.820312 -1.652343 -1.289062 c 2.511719 -1.710938 5.042969 -3.554688 7.640625 -5.082031 z m 0 0"/>
    </g>
    <path d="m 104.828125 53.769531 c -0.863281 -0.082031 -5.988281 -1.121093 -6.402344 -1.609375 c 0.222657 -0.78125 4.945313 -3.148437 5.882813 -3.632812 c 0 0 0.496094 0.101562 0.550781 0.113281 l -0.394531 0.449219 c -1.082032 0.386718 -3.460938 1.734375 -4.445313 2.460937 c 1.582031 0.410157 4.023438 1.019531 5.609375 1.28125 c -0.027344 1.183594 -0.152344 4.132813 -0.078125 5.179688 l -0.628906 0.070312 c -0.1875 0.316407 -0.199219 0.675781 -0.253906 1.054688 c -0.042969 -1.550781 0.101562 -3.773438 0.160156 -5.367188 z m 0 0" fill="url(#c)"/>
    <path d="m 110.121094 55.378906 c -0.144532 -0.601562 -0.347656 -1.214844 -0.246094 -1.824218 l 0.1875 -0.074219 c 0.71875 0.660156 1.070312 1.59375 1.730469 2.378906 c -0.9375 0.507813 -6.523438 3.667969 -7.089844 3.574219 l -0.035156 -0.296875 c 0.054687 -0.378907 0.066406 -0.738281 0.253906 -1.054688 l 0.628906 -0.070312 c 1.746094 -0.824219 3.035157 -1.417969 4.570313 -2.632813 z m 0 0" fill="url(#d)"/>
    <path d="m 104.859375 48.640625 l 1.804687 1.792969 c -0.917968 -0.46875 -1.347656 -0.738282 -2.199218 -1.34375 z m 0 0" fill="#464344"/>
    <path d="m 86.066406 18.058594 c 2.109375 -2.320313 4.105469 -0.683594 5.894532 1.207031 c 1.140624 1.015625 2.25 2.070313 3.332031 3.164063 c 8.441406 7.804687 16.792969 15.726562 25.046875 23.765624 c 1.121094 1.136719 6.832031 7.847657 5.585937 9.289063 c -0.40625 0.136719 -1.65625 -0.242187 -2.019531 -0.472656 c -0.863281 -0.394531 -1.761719 -1.085938 -2.632812 -1.527344 c -3.007813 -1.53125 -5.410157 -4.105469 -7.945313 -6.4375 c -3.324219 -3.050781 -6.632813 -6.117187 -9.925781 -9.203125 c -5.234375 -4.847656 -10.652344 -9.453125 -15.648438 -14.574219 c -1.519531 -1.5625 -2.515625 -2.921875 -1.6875 -5.210937 z m 0 0" fill="#f4f2e2"/>
    <path d="m 123.90625 55.011719 c -0.863281 -0.394531 -1.761719 -1.085938 -2.632812 -1.527344 c -3.007813 -1.53125 -5.410157 -4.105469 -7.945313 -6.4375 c -3.324219 -3.050781 -6.632813 -6.117187 -9.925781 -9.203125 c -5.234375 -4.847656 -10.652344 -9.453125 -15.648438 -14.574219 c -1.519531 -1.5625 -2.515625 -2.921875 -1.6875 -5.210937 c 2.351563 1.359375 1.828125 2.546875 5.222656 3.566406 c 1.660157 2.015625 5.191407 4.539062 7.414063 7.148438 c -0.3125 0.5625 -0.34375 0.417968 -0.292969 0.96875 c 0.839844 0.898437 1.816406 1.625 2.679688 2.488281 c 4.898437 4.910156 10.191406 9.296875 15.066406 14.253906 c 2.050781 2.085937 4.726562 3.742187 6.605469 6.1875 c 0.214843 0.285156 0.984375 0.0625 1.085937 0.335937 c -0.386718 0.507813 -0.34375 0.3125 -0.421875 0.917969 c 0.1875 0.351563 0.257813 0.464844 0.5 0.777344 c 0.003907 0.160156 0.039063 0.230469 -0.019531 0.308594 z m 0 0" fill="url(#e)"/>
    <path d="m 86.066406 18.058594 c 2.109375 -2.320313 4.105469 -0.683594 5.894532 1.207031 c 1.140624 1.015625 2.25 2.070313 3.332031 3.164063 c 8.441406 7.804687 16.792969 15.726562 25.046875 23.765624 l 0.15625 0.976563 c -1.628906 -0.570313 -7.960938 -7.929687 -9.835938 -9.414063 c -5.007812 -3.960937 -9.320312 -8.789062 -14.054687 -13.125 c -1.457031 -1.332031 -3.03125 -1.855468 -4.53125 -3.0625 c -0.792969 -0.640624 -0.777344 -1.132812 -0.878907 -2.140624 c -1.101562 -0.882813 -2.074218 -1.722657 -3.347656 -2.289063 l -0.234375 0.144531 c 0.164063 0.960938 2.898438 3.582032 3.675781 4.339844 c -3.394531 -1.019531 -2.871093 -2.207031 -5.222656 -3.566406 z m 0 0" fill="#bebdbf"/>
    <path d="m 91.960938 19.265625 c 1.140624 1.015625 2.25 2.070313 3.332031 3.164063 c -0.703125 0.019531 -2.0625 -0.328126 -2.601563 -0.882813 c -0.75 -0.773437 -0.671875 -1.222656 -0.730468 -2.28125 z m 0 0" fill="#a8a7aa"/>
    <path d="m 98.703125 28.773438 c 1.957031 1.445312 3.269531 3.335937 5.015625 4.921874 c 4.414062 4.003907 8.953125 7.859376 13.011719 12.300782 c 0.886719 0.964844 2.335937 1.777344 3.257812 2.746094 c 1.136719 1.007812 2.296875 3.019531 3.621094 3.601562 l 0.222656 -0.066406 c 0.082031 -1.140625 -2.476562 -4.414063 -3.335937 -5.105469 l -0.15625 -0.976563 c 1.121094 1.136719 6.832031 7.847657 5.585937 9.289063 c -0.40625 0.136719 -1.65625 -0.242187 -2.019531 -0.472656 c 0.058594 -0.078125 0.023438 -0.148438 0.019531 -0.308594 c -0.242187 -0.3125 -0.3125 -0.425781 -0.5 -0.777344 c 0.078125 -0.605469 0.035157 -0.410156 0.421875 -0.917969 c -0.101562 -0.273437 -0.871094 -0.050781 -1.085937 -0.335937 c -1.878907 -2.445313 -4.554688 -4.101563 -6.605469 -6.1875 c -4.875 -4.957031 -10.167969 -9.34375 -15.066406 -14.253906 c -0.863282 -0.863281 -1.839844 -1.589844 -2.679688 -2.488281 c -0.050781 -0.550782 -0.019531 -0.40625 0.292969 -0.96875 z m 0 0" fill="#a8a7aa"/>
    <path d="m 42.191406 39.445312 c 42.621094 43.464844 42.621094 43.464844 42.621094 43.464844" fill="none" stroke="#c7c0a8" stroke-linecap="square" stroke-linejoin="round" stroke-width="0.518472"/>
    <path d="m 42.191406 39.445312 c 42.621094 43.464844 42.621094 43.464844 42.621094 43.464844" fill="#080808"/>
</svg>
